<svg height="14" viewBox="0 0 14 14" width="14" xmlns="http://www.w3.org/2000/svg" xmlns:xlink="http://www.w3.org/1999/xlink"><linearGradient id="a" x1="15.848135%" x2="71.162203%" y1="20.420642%" y2="100%"><stop offset="0" stop-color="#5d81ff"/><stop offset="1" stop-color="#1644e6"/></linearGradient><g fill="none" fill-rule="evenodd"><circle cx="7" cy="7" fill="url(#a)" r="7"/><path d="m.40816327 7.76533278h7.18367346c.22530613 0 .40816327.15735033.40816327.35231428 0 .19433707-.18285714.35294118-.40816327.35294118h-7.18367346c-.22530613 0-.40816327-.15797723-.40816327-.35294118 0-.19433706.18285714-.35294118.40816327-.35294118zm3.74927302-5.88297984-2.9809657 2.9809657v1.25432842h1.25432842l2.9809657-2.9809657zm.54844606-.39501932 1.3361958 1.33619579.54615714-.54684413-1.3355088-1.33550881zm-4.11761508 3.09851742 4.31425464-4.4637208c.07540161-.07818803.17778274-.12213024.28455175-.12213024s.20915015.04394221.28455175.12213024l1.70473828 1.76327282c.07539552.07796377.11775396.18371768.11775396.29398965s-.04235844.21602588-.11775396.29398966l-4.31489771 4.4637208c-.07554541.07811912-.17804994.12191691-.28487328.12172036h-1.70473827c-.22171718-.00036759-.40126619-.18637958-.40126619-.41571002v-1.76260768c0-.11041241.04179856-.21616887.11767903-.29398965z" fill="#fff" fill-rule="nonzero" opacity=".8" transform="translate(3 2)"/></g></svg>