<svg height="20" viewBox="0 0 20 20" width="20" xmlns="http://www.w3.org/2000/svg"><path d="m19.8087904 18.8009959-3.4005026-3.6353189c1.3801364-1.658686 2.1353777-3.7272553 2.1353777-5.90308364 0-5.10630146-4.1595777-9.26259336-9.27374963-9.26259336-5.11033823 0-9.26991587 4.1562919-9.26991587 9.26259336 0 5.10630144 4.15957764 9.26259334 9.26991587 9.26259334 1.33796553 0 2.62992653-.2796399 3.83754583-.8312584.3603689-.1647194.5175511-.5860946.3527015-.9423482-.1648496-.3600842-.5865579-.5171423-.9430932-.3524229-1.0236011.4635128-2.116209.7010152-3.24715413.7010152-4.32442726 0-7.84377497-3.5165677-7.84377497-7.83757904 0-4.32101131 3.51934771-7.837579 7.84377497-7.837579 4.32442723 0 7.84377493 3.51656769 7.84377493 7.837579 0 2.03409304-.7782435 3.96092704-2.1852159 5.42807894-.2721935.2834706-.2645261.7354913.0191686 1.0074698.0230023.0191534.0498383.0268148.0728405.0459682.0191686.0268148.0306697.0612909.053672.0881057l3.6880311 3.9417736c.1380136.1493967.3296992.2260104.5213848.2260104.1763508 0 .3488678-.0651216.4868814-.1915342.2913621-.2681479.306697-.7201686.0383371-1.0074699z" fill="#fff"/></svg>